<svg xmlns="http://www.w3.org/2000/svg" width="59" height="57" viewBox="0 0 59 57" fill="none">
  <path fill-rule="evenodd" clip-rule="evenodd" d="M23.9639 4.02009L22.7801 4.14269C17.0362 4.71584 11.2494 7.67661 7.33632 12.0473C3.00923 16.8808 0.810415 22.8789 1.01282 29.2694C1.36548 40.3065 8.95552 49.6516 19.7226 52.312C22.8927 53.0771 26.1833 53.2056 29.4034 52.6899C32.6236 52.1743 35.7093 51.0249 38.4815 49.3083C43.9334 45.9133 47.8356 40.5167 49.3499 34.2776C49.8773 32.1291 50 31.0349 50 28.494C50 25.9531 49.8773 24.8589 49.3499 22.7104C46.9211 12.7951 38.7514 5.50047 28.5854 4.17027C27.7144 4.05687 24.5465 3.95572 23.9639 4.02009ZM28.1346 8.76468C31.5793 9.2179 34.8464 10.5606 37.6137 12.6603C38.6226 13.4143 40.6068 15.3973 41.3612 16.4057C43.0816 18.7075 44.3542 21.4139 44.9308 24.0038C45.5871 26.9613 45.5871 30.0267 44.9308 32.9842C43.6612 38.6881 39.6407 43.7515 34.3109 46.3567C32.3893 47.2965 30.3338 47.9334 28.2174 48.2448C26.9171 48.444 24.1203 48.444 22.82 48.2448C16.8461 47.3375 11.8045 44.0794 8.63046 39.0713C7.84974 37.7776 7.1985 36.4101 6.68618 34.9887C5.95573 32.9024 5.59762 30.7041 5.62817 28.494C5.62817 25.3095 6.24458 22.5939 7.60925 19.7894C8.65192 17.6501 9.71299 16.1728 11.4518 14.4349C12.9898 12.8406 14.8052 11.5392 16.8093 10.5945C20.3207 8.88012 24.2615 8.24342 28.1346 8.76468ZM24.6171 17.1229C23.9301 17.3466 23.5407 17.739 23.3505 18.3949C23.2401 18.7688 23.2279 19.6239 23.2463 24.8651C23.2708 30.9031 23.2708 30.9061 23.4487 31.2402C23.6823 31.6682 24.0574 32.0018 24.5097 32.1842C24.9145 32.3252 26.1228 32.3252 26.5276 32.1842C26.98 32.0018 27.355 31.6682 27.5887 31.2402C27.7666 30.9061 27.7666 30.9031 27.7911 24.8651C27.8156 18.2692 27.8156 18.2631 27.3464 17.7083C26.9661 17.2547 26.5583 17.1045 25.6413 17.08C25.2993 17.0607 24.9563 17.0751 24.6171 17.1229ZM24.8624 36.2484C24.2488 36.4677 23.7385 36.9068 23.4303 37.4805C23.2089 38.0302 23.1818 38.639 23.3536 39.2061C23.5194 39.6502 23.814 40.0346 24.1997 40.3104C24.5854 40.5861 25.0447 40.7406 25.5187 40.7539C26.4479 40.7539 27.3955 40.0796 27.6838 39.2061C27.8555 38.639 27.8285 38.0302 27.6071 37.4805C27.3532 37.0328 26.9849 36.6605 26.5399 36.4017C26.1841 36.2178 25.2243 36.1289 24.8624 36.2484Z" fill="black"/>
</svg>